G04 Gerber RS-274X*
G04 Layer: Top Solder Mask*
%FSLAX46Y46*%
%MOMM*%
%LPD*%
G01*
%ADD10R,1.9000X1.9000*%
%ADD11C,1.9000*%
%ADD12R,1.7000X1.7000*%
%ADD13C,1.7000*%
%ADD14R,1.2000X1.5000*%
%ADD15R,1.8000X1.8000*%
%ADD16C,1.8000*%
%ADD17C,2.2000*%
D10*
X8128000Y28956000D03*
D11*
X8128000Y31496000D03*
X8128000Y34036000D03*
X8128000Y36576000D03*
X8128000Y39116000D03*
X8128000Y41656000D03*
X8128000Y44196000D03*
X8128000Y46736000D03*
X30988000Y28956000D03*
X30988000Y31496000D03*
X30988000Y34036000D03*
X30988000Y36576000D03*
X30988000Y39116000D03*
X30988000Y41656000D03*
X30988000Y44196000D03*
X30988000Y46736000D03*
D10*
X38100000Y10160000D03*
D11*
X38100000Y12700000D03*
X38100000Y15240000D03*
X38100000Y17780000D03*
X38100000Y20320000D03*
X38100000Y22860000D03*
X38100000Y25400000D03*
X38100000Y27940000D03*
X38100000Y30480000D03*
X38100000Y33020000D03*
X38100000Y35560000D03*
X38100000Y38100000D03*
X38100000Y40640000D03*
X38100000Y43180000D03*
X38100000Y45720000D03*
X60960000Y10160000D03*
X60960000Y12700000D03*
X60960000Y15240000D03*
X60960000Y17780000D03*
X60960000Y20320000D03*
X60960000Y22860000D03*
X60960000Y25400000D03*
X60960000Y27940000D03*
X60960000Y30480000D03*
X60960000Y33020000D03*
X60960000Y35560000D03*
X60960000Y38100000D03*
X60960000Y40640000D03*
X60960000Y43180000D03*
X60960000Y45720000D03*
D12*
X68072000Y8128000D03*
D13*
X68072000Y10128000D03*
X68072000Y12128000D03*
X68072000Y14128000D03*
X68072000Y16128000D03*
X68072000Y18128000D03*
X68072000Y20128000D03*
X68072000Y22128000D03*
X84072000Y22128000D03*
X84072000Y20128000D03*
X84072000Y18128000D03*
X84072000Y16128000D03*
X84072000Y14128000D03*
X84072000Y12128000D03*
X84072000Y10128000D03*
X84072000Y8128000D03*
D10*
X84836000Y29972000D03*
D11*
X87376000Y29972000D03*
D10*
X70104000Y69088000D03*
D11*
X72644000Y69088000D03*
D10*
X57912000Y69088000D03*
D11*
X60452000Y69088000D03*
D10*
X34036000Y60960000D03*
D11*
X36576000Y60960000D03*
X39116000Y60960000D03*
X41656000Y60960000D03*
X44196000Y60960000D03*
X46736000Y60960000D03*
D10*
X6096000Y69088000D03*
D11*
X8636000Y69088000D03*
X11176000Y69088000D03*
X13716000Y69088000D03*
X16256000Y69088000D03*
X18796000Y69088000D03*
D10*
X51816000Y60960000D03*
D11*
X54356000Y60960000D03*
X56896000Y60960000D03*
X59436000Y60960000D03*
X61976000Y60960000D03*
X64516000Y60960000D03*
D10*
X64008000Y69088000D03*
D11*
X66548000Y69088000D03*
D10*
X51816000Y69088000D03*
D11*
X54356000Y69088000D03*
D10*
X78232000Y60960000D03*
D11*
X80772000Y60960000D03*
X83312000Y60960000D03*
X85852000Y60960000D03*
D10*
X70104000Y60960000D03*
D11*
X72644000Y60960000D03*
X75184000Y60960000D03*
D10*
X6096000Y60960000D03*
D11*
X8636000Y60960000D03*
X11176000Y60960000D03*
X13716000Y60960000D03*
D10*
X19812000Y60960000D03*
D11*
X22352000Y60960000D03*
X24892000Y60960000D03*
X27432000Y60960000D03*
D10*
X29972000Y69088000D03*
D11*
X32512000Y69088000D03*
X35052000Y69088000D03*
D10*
X40132000Y69088000D03*
D11*
X42672000Y69088000D03*
X45212000Y69088000D03*
D10*
X12192000Y77216000D03*
D11*
X14732000Y77216000D03*
D14*
X40198000Y52832000D03*
X42098000Y52832000D03*
D10*
X19812000Y77216000D03*
D11*
X22352000Y77216000D03*
D14*
X45278000Y52832000D03*
X47178000Y52832000D03*
D10*
X27940000Y77216000D03*
D11*
X30480000Y77216000D03*
D14*
X49850000Y52832000D03*
X51750000Y52832000D03*
D10*
X36068000Y77216000D03*
D11*
X38608000Y77216000D03*
D14*
X54930000Y52832000D03*
X56830000Y52832000D03*
D15*
X6096000Y52832000D03*
D16*
X9596000Y52832000D03*
D15*
X16764000Y52832000D03*
D16*
X20264000Y52832000D03*
D14*
X28006000Y52832000D03*
X29906000Y52832000D03*
X33086000Y52832000D03*
X34986000Y52832000D03*
D17*
X61976000Y52832000D03*
X67056000Y52832000D03*
X72136000Y52832000D03*
X77216000Y52832000D03*
M02*
