G04 Gerber RS-274X*
G04 Layer: Top Silkscreen*
%FSLAX46Y46*%
%MOMM*%
%LPD*%
G01*
%ADD10C,0.1500*%
%ADD11C,0.2000*%
%ADD12C,0.1200*%
D10*
X2000000Y2600000D02*
X88000000Y2600000D01*
D11*
X45000000Y1200000D02*
X45000000Y2400000D01*
D12*
X6058000Y6256000D02*
X33058000Y6256000D01*
X33058000Y6256000D02*
X33058000Y47056000D01*
X33058000Y47056000D02*
X6058000Y47056000D01*
X6058000Y47056000D02*
X6058000Y6256000D01*
X36830000Y2160000D02*
X62230000Y2160000D01*
X62230000Y2160000D02*
X62230000Y53760000D01*
X62230000Y53760000D02*
X36830000Y53760000D01*
X36830000Y53760000D02*
X36830000Y2160000D01*
X67072000Y7128000D02*
X85072000Y7128000D01*
X85072000Y7128000D02*
X85072000Y23128000D01*
X85072000Y23128000D02*
X67072000Y23128000D01*
X67072000Y23128000D02*
X67072000Y7128000D01*
X83566000Y28702000D02*
X88646000Y28702000D01*
X88646000Y28702000D02*
X88646000Y31242000D01*
X88646000Y31242000D02*
X83566000Y31242000D01*
X83566000Y31242000D02*
X83566000Y28702000D01*
X68834000Y67818000D02*
X73914000Y67818000D01*
X73914000Y67818000D02*
X73914000Y70358000D01*
X73914000Y70358000D02*
X68834000Y70358000D01*
X68834000Y70358000D02*
X68834000Y67818000D01*
X56642000Y67818000D02*
X61722000Y67818000D01*
X61722000Y67818000D02*
X61722000Y70358000D01*
X61722000Y70358000D02*
X56642000Y70358000D01*
X56642000Y70358000D02*
X56642000Y67818000D01*
X32766000Y59690000D02*
X48006000Y59690000D01*
X48006000Y59690000D02*
X48006000Y62230000D01*
X48006000Y62230000D02*
X32766000Y62230000D01*
X32766000Y62230000D02*
X32766000Y59690000D01*
X4826000Y67818000D02*
X20066000Y67818000D01*
X20066000Y67818000D02*
X20066000Y70358000D01*
X20066000Y70358000D02*
X4826000Y70358000D01*
X4826000Y70358000D02*
X4826000Y67818000D01*
X50546000Y59690000D02*
X65786000Y59690000D01*
X65786000Y59690000D02*
X65786000Y62230000D01*
X65786000Y62230000D02*
X50546000Y62230000D01*
X50546000Y62230000D02*
X50546000Y59690000D01*
X62738000Y67818000D02*
X67818000Y67818000D01*
X67818000Y67818000D02*
X67818000Y70358000D01*
X67818000Y70358000D02*
X62738000Y70358000D01*
X62738000Y70358000D02*
X62738000Y67818000D01*
X50546000Y67818000D02*
X55626000Y67818000D01*
X55626000Y67818000D02*
X55626000Y70358000D01*
X55626000Y70358000D02*
X50546000Y70358000D01*
X50546000Y70358000D02*
X50546000Y67818000D01*
X76962000Y59690000D02*
X87122000Y59690000D01*
X87122000Y59690000D02*
X87122000Y62230000D01*
X87122000Y62230000D02*
X76962000Y62230000D01*
X76962000Y62230000D02*
X76962000Y59690000D01*
X68834000Y59690000D02*
X76454000Y59690000D01*
X76454000Y59690000D02*
X76454000Y62230000D01*
X76454000Y62230000D02*
X68834000Y62230000D01*
X68834000Y62230000D02*
X68834000Y59690000D01*
X4826000Y59690000D02*
X14986000Y59690000D01*
X14986000Y59690000D02*
X14986000Y62230000D01*
X14986000Y62230000D02*
X4826000Y62230000D01*
X4826000Y62230000D02*
X4826000Y59690000D01*
X18542000Y59690000D02*
X28702000Y59690000D01*
X28702000Y59690000D02*
X28702000Y62230000D01*
X28702000Y62230000D02*
X18542000Y62230000D01*
X18542000Y62230000D02*
X18542000Y59690000D01*
X28702000Y67818000D02*
X36322000Y67818000D01*
X36322000Y67818000D02*
X36322000Y70358000D01*
X36322000Y70358000D02*
X28702000Y70358000D01*
X28702000Y70358000D02*
X28702000Y67818000D01*
X38862000Y67818000D02*
X46482000Y67818000D01*
X46482000Y67818000D02*
X46482000Y70358000D01*
X46482000Y70358000D02*
X38862000Y70358000D01*
X38862000Y70358000D02*
X38862000Y67818000D01*
X10922000Y75946000D02*
X16002000Y75946000D01*
X16002000Y75946000D02*
X16002000Y78486000D01*
X16002000Y78486000D02*
X10922000Y78486000D01*
X10922000Y78486000D02*
X10922000Y75946000D01*
X39448000Y51932000D02*
X42848000Y51932000D01*
X42848000Y51932000D02*
X42848000Y53732000D01*
X42848000Y53732000D02*
X39448000Y53732000D01*
X39448000Y53732000D02*
X39448000Y51932000D01*
X18542000Y75946000D02*
X23622000Y75946000D01*
X23622000Y75946000D02*
X23622000Y78486000D01*
X23622000Y78486000D02*
X18542000Y78486000D01*
X18542000Y78486000D02*
X18542000Y75946000D01*
X44528000Y51932000D02*
X47928000Y51932000D01*
X47928000Y51932000D02*
X47928000Y53732000D01*
X47928000Y53732000D02*
X44528000Y53732000D01*
X44528000Y53732000D02*
X44528000Y51932000D01*
X26670000Y75946000D02*
X31750000Y75946000D01*
X31750000Y75946000D02*
X31750000Y78486000D01*
X31750000Y78486000D02*
X26670000Y78486000D01*
X26670000Y78486000D02*
X26670000Y75946000D01*
X49100000Y51932000D02*
X52500000Y51932000D01*
X52500000Y51932000D02*
X52500000Y53732000D01*
X52500000Y53732000D02*
X49100000Y53732000D01*
X49100000Y53732000D02*
X49100000Y51932000D01*
X34798000Y75946000D02*
X39878000Y75946000D01*
X39878000Y75946000D02*
X39878000Y78486000D01*
X39878000Y78486000D02*
X34798000Y78486000D01*
X34798000Y78486000D02*
X34798000Y75946000D01*
X54180000Y51932000D02*
X57580000Y51932000D01*
X57580000Y51932000D02*
X57580000Y53732000D01*
X57580000Y53732000D02*
X54180000Y53732000D01*
X54180000Y53732000D02*
X54180000Y51932000D01*
X3596000Y48632000D02*
X12096000Y48632000D01*
X12096000Y48632000D02*
X12096000Y57032000D01*
X12096000Y57032000D02*
X3596000Y57032000D01*
X3596000Y57032000D02*
X3596000Y48632000D01*
X14264000Y48632000D02*
X22764000Y48632000D01*
X22764000Y48632000D02*
X22764000Y57032000D01*
X22764000Y57032000D02*
X14264000Y57032000D01*
X14264000Y57032000D02*
X14264000Y48632000D01*
X27256000Y51932000D02*
X30656000Y51932000D01*
X30656000Y51932000D02*
X30656000Y53732000D01*
X30656000Y53732000D02*
X27256000Y53732000D01*
X27256000Y53732000D02*
X27256000Y51932000D01*
X32336000Y51932000D02*
X35736000Y51932000D01*
X35736000Y51932000D02*
X35736000Y53732000D01*
X35736000Y53732000D02*
X32336000Y53732000D01*
X32336000Y53732000D02*
X32336000Y51932000D01*
M02*
