M48
; DRILL file for satellite carrier board
METRIC,LZ
T01C0.400
T02C0.800
T03C1.000
T04C3.200
%
G90
G05
T01
X69.596Y14.224
X67.056Y52.832
X20.320Y60.960
X16.764Y48.260
X32.004Y48.260
X66.040Y54.864
X70.104Y58.928
X39.624Y30.480
X47.752Y68.072
X49.784Y66.040
X49.784Y22.860
X40.640Y54.864
X38.100Y64.008
X45.720Y64.008
X48.260Y54.864
X35.052Y72.136
X68.072Y72.136
X48.768Y51.816
X48.768Y22.860
X27.940Y74.676
X66.040Y67.564
X66.040Y56.896
X36.068Y56.896
X35.560Y42.672
X44.196Y52.832
X26.924Y74.676
X26.924Y62.484
X30.988Y62.484
X30.988Y57.912
X34.036Y57.912
X10.160Y8.128
X11.176Y7.112
X11.176Y34.036
X12.192Y6.096
X12.192Y36.576
X45.212Y55.880
X25.908Y74.676
X25.908Y63.500
X29.972Y63.500
X29.972Y50.800
X66.040Y5.080
X13.208Y5.080
X63.500Y14.224
X63.500Y4.064
X14.224Y4.064
X14.224Y41.656
X41.656Y58.420
X59.436Y58.420
X41.656Y61.976
X46.228Y55.880
X56.896Y55.880
X24.892Y56.896
X33.020Y56.896
X11.176Y56.896
T02
X68.072Y8.128
X68.072Y10.128
X68.072Y12.128
X68.072Y14.128
X68.072Y16.128
X68.072Y18.128
X68.072Y20.128
X68.072Y22.128
X84.072Y22.128
X84.072Y20.128
X84.072Y18.128
X84.072Y16.128
X84.072Y14.128
X84.072Y12.128
X84.072Y10.128
X84.072Y8.128
X6.096Y52.832
X9.596Y52.832
X16.764Y52.832
X20.264Y52.832
T03
X8.128Y28.956
X8.128Y31.496
X8.128Y34.036
X8.128Y36.576
X8.128Y39.116
X8.128Y41.656
X8.128Y44.196
X8.128Y46.736
X30.988Y28.956
X30.988Y31.496
X30.988Y34.036
X30.988Y36.576
X30.988Y39.116
X30.988Y41.656
X30.988Y44.196
X30.988Y46.736
X38.100Y10.160
X38.100Y12.700
X38.100Y15.240
X38.100Y17.780
X38.100Y20.320
X38.100Y22.860
X38.100Y25.400
X38.100Y27.940
X38.100Y30.480
X38.100Y33.020
X38.100Y35.560
X38.100Y38.100
X38.100Y40.640
X38.100Y43.180
X38.100Y45.720
X60.960Y10.160
X60.960Y12.700
X60.960Y15.240
X60.960Y17.780
X60.960Y20.320
X60.960Y22.860
X60.960Y25.400
X60.960Y27.940
X60.960Y30.480
X60.960Y33.020
X60.960Y35.560
X60.960Y38.100
X60.960Y40.640
X60.960Y43.180
X60.960Y45.720
X84.836Y29.972
X87.376Y29.972
X70.104Y69.088
X72.644Y69.088
X57.912Y69.088
X60.452Y69.088
X34.036Y60.960
X36.576Y60.960
X39.116Y60.960
X41.656Y60.960
X44.196Y60.960
X46.736Y60.960
X6.096Y69.088
X8.636Y69.088
X11.176Y69.088
X13.716Y69.088
X16.256Y69.088
X18.796Y69.088
X51.816Y60.960
X54.356Y60.960
X56.896Y60.960
X59.436Y60.960
X61.976Y60.960
X64.516Y60.960
X64.008Y69.088
X66.548Y69.088
X51.816Y69.088
X54.356Y69.088
X78.232Y60.960
X80.772Y60.960
X83.312Y60.960
X85.852Y60.960
X70.104Y60.960
X72.644Y60.960
X75.184Y60.960
X6.096Y60.960
X8.636Y60.960
X11.176Y60.960
X13.716Y60.960
X19.812Y60.960
X22.352Y60.960
X24.892Y60.960
X27.432Y60.960
X29.972Y69.088
X32.512Y69.088
X35.052Y69.088
X40.132Y69.088
X42.672Y69.088
X45.212Y69.088
X12.192Y77.216
X14.732Y77.216
X19.812Y77.216
X22.352Y77.216
X27.940Y77.216
X30.480Y77.216
X36.068Y77.216
X38.608Y77.216
T04
X5.000Y5.000
X85.000Y5.000
X5.000Y81.000
X85.000Y81.000
X5.000Y5.000
X85.000Y5.000
X5.000Y81.000
X85.000Y81.000
M30
