G04 Gerber RS-274X*
G04 Layer: Top Copper*
%FSLAX46Y46*%
%MOMM*%
%LPD*%
G01*
%ADD10R,1.7000X1.7000*%
%ADD11C,1.7000*%
%ADD12R,1.5000X1.5000*%
%ADD13C,1.5000*%
%ADD14R,1.0000X1.3000*%
%ADD15R,1.6000X1.6000*%
%ADD16C,1.6000*%
%ADD17C,2.0000*%
%ADD18C,0.8000*%
%ADD19C,0.4000*%
D10*
X8128000Y28956000D03*
D11*
X8128000Y31496000D03*
X8128000Y34036000D03*
X8128000Y36576000D03*
X8128000Y39116000D03*
X8128000Y41656000D03*
X8128000Y44196000D03*
X8128000Y46736000D03*
X30988000Y28956000D03*
X30988000Y31496000D03*
X30988000Y34036000D03*
X30988000Y36576000D03*
X30988000Y39116000D03*
X30988000Y41656000D03*
X30988000Y44196000D03*
X30988000Y46736000D03*
D10*
X38100000Y10160000D03*
D11*
X38100000Y12700000D03*
X38100000Y15240000D03*
X38100000Y17780000D03*
X38100000Y20320000D03*
X38100000Y22860000D03*
X38100000Y25400000D03*
X38100000Y27940000D03*
X38100000Y30480000D03*
X38100000Y33020000D03*
X38100000Y35560000D03*
X38100000Y38100000D03*
X38100000Y40640000D03*
X38100000Y43180000D03*
X38100000Y45720000D03*
X60960000Y10160000D03*
X60960000Y12700000D03*
X60960000Y15240000D03*
X60960000Y17780000D03*
X60960000Y20320000D03*
X60960000Y22860000D03*
X60960000Y25400000D03*
X60960000Y27940000D03*
X60960000Y30480000D03*
X60960000Y33020000D03*
X60960000Y35560000D03*
X60960000Y38100000D03*
X60960000Y40640000D03*
X60960000Y43180000D03*
X60960000Y45720000D03*
D12*
X68072000Y8128000D03*
D13*
X68072000Y10128000D03*
X68072000Y12128000D03*
X68072000Y14128000D03*
X68072000Y16128000D03*
X68072000Y18128000D03*
X68072000Y20128000D03*
X68072000Y22128000D03*
X84072000Y22128000D03*
X84072000Y20128000D03*
X84072000Y18128000D03*
X84072000Y16128000D03*
X84072000Y14128000D03*
X84072000Y12128000D03*
X84072000Y10128000D03*
X84072000Y8128000D03*
D10*
X84836000Y29972000D03*
D11*
X87376000Y29972000D03*
D10*
X70104000Y69088000D03*
D11*
X72644000Y69088000D03*
D10*
X57912000Y69088000D03*
D11*
X60452000Y69088000D03*
D10*
X34036000Y60960000D03*
D11*
X36576000Y60960000D03*
X39116000Y60960000D03*
X41656000Y60960000D03*
X44196000Y60960000D03*
X46736000Y60960000D03*
D10*
X6096000Y69088000D03*
D11*
X8636000Y69088000D03*
X11176000Y69088000D03*
X13716000Y69088000D03*
X16256000Y69088000D03*
X18796000Y69088000D03*
D10*
X51816000Y60960000D03*
D11*
X54356000Y60960000D03*
X56896000Y60960000D03*
X59436000Y60960000D03*
X61976000Y60960000D03*
X64516000Y60960000D03*
D10*
X64008000Y69088000D03*
D11*
X66548000Y69088000D03*
D10*
X51816000Y69088000D03*
D11*
X54356000Y69088000D03*
D10*
X78232000Y60960000D03*
D11*
X80772000Y60960000D03*
X83312000Y60960000D03*
X85852000Y60960000D03*
D10*
X70104000Y60960000D03*
D11*
X72644000Y60960000D03*
X75184000Y60960000D03*
D10*
X6096000Y60960000D03*
D11*
X8636000Y60960000D03*
X11176000Y60960000D03*
X13716000Y60960000D03*
D10*
X19812000Y60960000D03*
D11*
X22352000Y60960000D03*
X24892000Y60960000D03*
X27432000Y60960000D03*
D10*
X29972000Y69088000D03*
D11*
X32512000Y69088000D03*
X35052000Y69088000D03*
D10*
X40132000Y69088000D03*
D11*
X42672000Y69088000D03*
X45212000Y69088000D03*
D10*
X12192000Y77216000D03*
D11*
X14732000Y77216000D03*
D14*
X40198000Y52832000D03*
X42098000Y52832000D03*
D10*
X19812000Y77216000D03*
D11*
X22352000Y77216000D03*
D14*
X45278000Y52832000D03*
X47178000Y52832000D03*
D10*
X27940000Y77216000D03*
D11*
X30480000Y77216000D03*
D14*
X49850000Y52832000D03*
X51750000Y52832000D03*
D10*
X36068000Y77216000D03*
D11*
X38608000Y77216000D03*
D14*
X54930000Y52832000D03*
X56830000Y52832000D03*
D15*
X6096000Y52832000D03*
D16*
X9596000Y52832000D03*
D15*
X16764000Y52832000D03*
D16*
X20264000Y52832000D03*
D14*
X28006000Y52832000D03*
X29906000Y52832000D03*
X33086000Y52832000D03*
X34986000Y52832000D03*
D17*
X61976000Y52832000D03*
X67056000Y52832000D03*
X72136000Y52832000D03*
X77216000Y52832000D03*
D18*
X69596000Y14224000D02*
X83820000Y14224000D01*
X83820000Y14224000D02*
X84072000Y14128000D01*
X51816000Y60960000D02*
X52832000Y60960000D01*
X52832000Y60960000D02*
X52832000Y59436000D01*
X52832000Y59436000D02*
X67056000Y59436000D01*
X67056000Y59436000D02*
X67056000Y52832000D01*
X34036000Y60960000D02*
X35052000Y60960000D01*
X35052000Y60960000D02*
X35052000Y59436000D01*
X35052000Y59436000D02*
X52832000Y59436000D01*
X33086000Y52832000D02*
X33020000Y52832000D01*
X33020000Y52832000D02*
X33020000Y53848000D01*
X33020000Y53848000D02*
X33528000Y53848000D01*
X33528000Y53848000D02*
X33528000Y54356000D01*
X33528000Y54356000D02*
X34036000Y54356000D01*
X34036000Y54356000D02*
X34036000Y54864000D01*
X34036000Y54864000D02*
X35052000Y54864000D01*
X35052000Y54864000D02*
X35052000Y59436000D01*
X28006000Y52832000D02*
X27940000Y52832000D01*
X27940000Y52832000D02*
X27940000Y53848000D01*
X27940000Y53848000D02*
X28448000Y53848000D01*
X28448000Y53848000D02*
X28448000Y54356000D01*
X28448000Y54356000D02*
X28956000Y54356000D01*
X28956000Y54356000D02*
X28956000Y54864000D01*
X28956000Y54864000D02*
X34036000Y54864000D01*
X19812000Y60960000D02*
X20828000Y60960000D01*
X20828000Y60960000D02*
X20828000Y59436000D01*
X20828000Y59436000D02*
X35052000Y59436000D01*
X6096000Y60960000D02*
X7112000Y60960000D01*
X7112000Y60960000D02*
X7112000Y59436000D01*
X7112000Y59436000D02*
X20828000Y59436000D01*
X69596000Y14224000D03*
X67056000Y52832000D03*
X20320000Y60960000D03*
X38100000Y45720000D02*
X32512000Y45720000D01*
X32512000Y45720000D02*
X32512000Y48260000D01*
X32512000Y48260000D02*
X16764000Y48260000D01*
X61976000Y52832000D02*
X58928000Y52832000D01*
X58928000Y52832000D02*
X58928000Y51816000D01*
X58928000Y51816000D02*
X58420000Y51816000D01*
X58420000Y51816000D02*
X58420000Y51308000D01*
X58420000Y51308000D02*
X57912000Y51308000D01*
X57912000Y51308000D02*
X57912000Y50800000D01*
X57912000Y50800000D02*
X38100000Y50800000D01*
X38100000Y50800000D02*
X38100000Y45720000D01*
X66040000Y54864000D02*
X61976000Y54864000D01*
X61976000Y54864000D02*
X61976000Y52832000D01*
X83312000Y60960000D02*
X82296000Y60960000D01*
X82296000Y60960000D02*
X82296000Y59436000D01*
X82296000Y59436000D02*
X79248000Y59436000D01*
X79248000Y59436000D02*
X79248000Y58928000D01*
X79248000Y58928000D02*
X70104000Y58928000D01*
X16764000Y48260000D03*
X32004000Y48260000D03*
X66040000Y54864000D03*
X70104000Y58928000D03*
X13716000Y69088000D02*
X11176000Y69088000D01*
X51816000Y69088000D02*
X46736000Y69088000D01*
X46736000Y69088000D02*
X46736000Y67564000D01*
X46736000Y67564000D02*
X41148000Y67564000D01*
X41148000Y67564000D02*
X41148000Y67056000D01*
X41148000Y67056000D02*
X13716000Y67056000D01*
X13716000Y67056000D02*
X13716000Y69088000D01*
X61976000Y60960000D02*
X60960000Y60960000D01*
X60960000Y60960000D02*
X60960000Y62484000D01*
X60960000Y62484000D02*
X52832000Y62484000D01*
X52832000Y62484000D02*
X52832000Y62992000D01*
X52832000Y62992000D02*
X51816000Y62992000D01*
X51816000Y62992000D02*
X51816000Y69088000D01*
X72136000Y52832000D02*
X69088000Y52832000D01*
X69088000Y52832000D02*
X69088000Y54356000D01*
X69088000Y54356000D02*
X68580000Y54356000D01*
X68580000Y54356000D02*
X68580000Y54864000D01*
X68580000Y54864000D02*
X68072000Y54864000D01*
X68072000Y54864000D02*
X68072000Y60452000D01*
X68072000Y60452000D02*
X66040000Y60452000D01*
X66040000Y60452000D02*
X66040000Y62484000D01*
X66040000Y62484000D02*
X60960000Y62484000D01*
X6096000Y69088000D02*
X7112000Y69088000D01*
X7112000Y69088000D02*
X7112000Y67564000D01*
X7112000Y67564000D02*
X12700000Y67564000D01*
X12700000Y67564000D02*
X12700000Y66040000D01*
X12700000Y66040000D02*
X46736000Y66040000D01*
X46736000Y66040000D02*
X46736000Y60960000D01*
X66548000Y69088000D02*
X66040000Y69088000D01*
X66040000Y69088000D02*
X66040000Y70104000D01*
X66040000Y70104000D02*
X65532000Y70104000D01*
X65532000Y70104000D02*
X65532000Y70612000D01*
X65532000Y70612000D02*
X65024000Y70612000D01*
X65024000Y70612000D02*
X65024000Y71120000D01*
X65024000Y71120000D02*
X16256000Y71120000D01*
X16256000Y71120000D02*
X16256000Y69088000D01*
X78232000Y60960000D02*
X76708000Y60960000D01*
X76708000Y60960000D02*
X76708000Y62484000D01*
X76708000Y62484000D02*
X71120000Y62484000D01*
X71120000Y62484000D02*
X71120000Y62992000D01*
X71120000Y62992000D02*
X67056000Y62992000D01*
X67056000Y62992000D02*
X67056000Y63500000D01*
X67056000Y63500000D02*
X54356000Y63500000D01*
X54356000Y63500000D02*
X54356000Y69088000D01*
D19*
X60960000Y30480000D02*
X39624000Y30480000D01*
D18*
X39624000Y30480000D03*
D19*
X47752000Y68072000D02*
X49784000Y68072000D01*
X49784000Y68072000D02*
X49784000Y66040000D01*
X49784000Y22860000D02*
X60960000Y22860000D01*
D18*
X47752000Y68072000D03*
X49784000Y66040000D03*
X49784000Y22860000D03*
D19*
X54930000Y52832000D02*
X53848000Y52832000D01*
X53848000Y52832000D02*
X53848000Y53848000D01*
X53848000Y53848000D02*
X53340000Y53848000D01*
X53340000Y53848000D02*
X53340000Y54356000D01*
X53340000Y54356000D02*
X52832000Y54356000D01*
X52832000Y54356000D02*
X52832000Y54864000D01*
X52832000Y54864000D02*
X40640000Y54864000D01*
X38100000Y64008000D02*
X45720000Y64008000D01*
D18*
X40640000Y54864000D03*
X38100000Y64008000D03*
X45720000Y64008000D03*
X48260000Y54864000D03*
D19*
X35052000Y72136000D02*
X68072000Y72136000D01*
D18*
X35052000Y72136000D03*
X68072000Y72136000D03*
D19*
X49850000Y52832000D02*
X49276000Y52832000D01*
X49276000Y52832000D02*
X49276000Y51816000D01*
X49276000Y51816000D02*
X48768000Y51816000D01*
X48768000Y22860000D02*
X38100000Y22860000D01*
X30480000Y77216000D02*
X29972000Y77216000D01*
X29972000Y77216000D02*
X29972000Y76200000D01*
X29972000Y76200000D02*
X29464000Y76200000D01*
X29464000Y76200000D02*
X29464000Y75692000D01*
X29464000Y75692000D02*
X28956000Y75692000D01*
X28956000Y75692000D02*
X28956000Y75184000D01*
X28956000Y75184000D02*
X27940000Y75184000D01*
X27940000Y75184000D02*
X27940000Y74676000D01*
D18*
X48768000Y51816000D03*
X48768000Y22860000D03*
X27940000Y74676000D03*
D19*
X70104000Y69088000D02*
X68072000Y69088000D01*
X68072000Y69088000D02*
X68072000Y67564000D01*
X68072000Y67564000D02*
X66040000Y67564000D01*
X66040000Y56896000D02*
X36068000Y56896000D01*
X35560000Y42672000D02*
X32512000Y42672000D01*
X32512000Y42672000D02*
X32512000Y35052000D01*
X32512000Y35052000D02*
X30988000Y35052000D01*
X30988000Y35052000D02*
X30988000Y34036000D01*
D18*
X66040000Y67564000D03*
X66040000Y56896000D03*
X36068000Y56896000D03*
X35560000Y42672000D03*
D19*
X45278000Y52832000D02*
X44196000Y52832000D01*
X22352000Y77216000D02*
X25908000Y77216000D01*
X25908000Y77216000D02*
X25908000Y76200000D01*
X25908000Y76200000D02*
X26416000Y76200000D01*
X26416000Y76200000D02*
X26416000Y75692000D01*
X26416000Y75692000D02*
X26924000Y75692000D01*
X26924000Y75692000D02*
X26924000Y74676000D01*
X26924000Y62484000D02*
X30988000Y62484000D01*
X30988000Y57912000D02*
X34036000Y57912000D01*
D18*
X44196000Y52832000D03*
X26924000Y74676000D03*
X26924000Y62484000D03*
X30988000Y62484000D03*
X30988000Y57912000D03*
X34036000Y57912000D03*
D19*
X68072000Y16128000D02*
X68072000Y16256000D01*
X68072000Y16256000D02*
X62484000Y16256000D01*
X62484000Y16256000D02*
X62484000Y8636000D01*
X62484000Y8636000D02*
X39116000Y8636000D01*
X39116000Y8636000D02*
X39116000Y8128000D01*
X39116000Y8128000D02*
X10160000Y8128000D01*
D18*
X10160000Y8128000D03*
D19*
X68072000Y10128000D02*
X68072000Y10160000D01*
X68072000Y10160000D02*
X63500000Y10160000D01*
X63500000Y10160000D02*
X63500000Y7620000D01*
X63500000Y7620000D02*
X40132000Y7620000D01*
X40132000Y7620000D02*
X40132000Y7112000D01*
X40132000Y7112000D02*
X11176000Y7112000D01*
X11176000Y34036000D02*
X8128000Y34036000D01*
D18*
X11176000Y7112000D03*
X11176000Y34036000D03*
D19*
X68072000Y12128000D02*
X68072000Y12192000D01*
X68072000Y12192000D02*
X70104000Y12192000D01*
X70104000Y12192000D02*
X70104000Y7112000D01*
X70104000Y7112000D02*
X69596000Y7112000D01*
X69596000Y7112000D02*
X69596000Y6604000D01*
X69596000Y6604000D02*
X69088000Y6604000D01*
X69088000Y6604000D02*
X69088000Y6096000D01*
X69088000Y6096000D02*
X12192000Y6096000D01*
X12192000Y36576000D02*
X8128000Y36576000D01*
D18*
X12192000Y6096000D03*
X12192000Y36576000D03*
D19*
X40198000Y52832000D02*
X39624000Y52832000D01*
X39624000Y52832000D02*
X39624000Y55880000D01*
X39624000Y55880000D02*
X45212000Y55880000D01*
X14732000Y77216000D02*
X17780000Y77216000D01*
X17780000Y77216000D02*
X17780000Y76200000D01*
X17780000Y76200000D02*
X18288000Y76200000D01*
X18288000Y76200000D02*
X18288000Y75692000D01*
X18288000Y75692000D02*
X18796000Y75692000D01*
X18796000Y75692000D02*
X18796000Y75184000D01*
X18796000Y75184000D02*
X25400000Y75184000D01*
X25400000Y75184000D02*
X25400000Y74676000D01*
X25400000Y74676000D02*
X25908000Y74676000D01*
X25908000Y63500000D02*
X29972000Y63500000D01*
X29972000Y50800000D02*
X37084000Y50800000D01*
X37084000Y50800000D02*
X37084000Y51816000D01*
X37084000Y51816000D02*
X39624000Y51816000D01*
X39624000Y51816000D02*
X39624000Y52832000D01*
D18*
X45212000Y55880000D03*
X25908000Y74676000D03*
X25908000Y63500000D03*
X29972000Y63500000D03*
X29972000Y50800000D03*
D19*
X66040000Y5080000D02*
X13208000Y5080000D01*
D18*
X66040000Y5080000D03*
X13208000Y5080000D03*
D19*
X68072000Y14128000D02*
X68072000Y14224000D01*
X68072000Y14224000D02*
X63500000Y14224000D01*
X63500000Y4064000D02*
X14224000Y4064000D01*
X14224000Y41656000D02*
X8128000Y41656000D01*
D18*
X63500000Y14224000D03*
X63500000Y4064000D03*
X14224000Y4064000D03*
X14224000Y41656000D03*
D19*
X41656000Y58420000D02*
X59436000Y58420000D01*
X27432000Y60960000D02*
X32004000Y60960000D01*
X32004000Y60960000D02*
X32004000Y61976000D01*
X32004000Y61976000D02*
X32512000Y61976000D01*
X32512000Y61976000D02*
X32512000Y62484000D01*
X32512000Y62484000D02*
X33020000Y62484000D01*
X33020000Y62484000D02*
X33020000Y62992000D01*
X33020000Y62992000D02*
X41656000Y62992000D01*
X41656000Y62992000D02*
X41656000Y61976000D01*
X13716000Y60960000D02*
X17780000Y60960000D01*
X17780000Y60960000D02*
X17780000Y61976000D01*
X17780000Y61976000D02*
X18288000Y61976000D01*
X18288000Y61976000D02*
X18288000Y62484000D01*
X18288000Y62484000D02*
X18796000Y62484000D01*
X18796000Y62484000D02*
X18796000Y62992000D01*
X18796000Y62992000D02*
X24892000Y62992000D01*
X24892000Y62992000D02*
X24892000Y64516000D01*
X24892000Y64516000D02*
X33020000Y64516000D01*
X33020000Y64516000D02*
X33020000Y62992000D01*
D18*
X41656000Y58420000D03*
X59436000Y58420000D03*
X41656000Y61976000D03*
D19*
X46228000Y55880000D02*
X56896000Y55880000D01*
X24892000Y56896000D02*
X33020000Y56896000D01*
X11176000Y56896000D02*
X24892000Y56896000D01*
D18*
X46228000Y55880000D03*
X56896000Y55880000D03*
X24892000Y56896000D03*
X33020000Y56896000D03*
X11176000Y56896000D03*
M02*
